<svg xmlns="http://www.w3.org/2000/svg" viewBox="0 0 1024 1024" class="avatar" role="img" aria-label="Avatar">
  <defs>
    <circle id="porthole" cx="512" cy="608" r="416" />
    <path id="sclera-left" d="M397.9,438.9c-1.1-0.8-1.3-2.5-0.3-3.5c4.1-4.6,16.7-16,39.2-13.3c20.9,2.5,29.2,14.2,31,17.3 c0.2,0.4,0.1,0.9-0.3,1.2c-2.9,1.6-14.6,7.2-34.2,7.2C412.3,447.8,401.8,441.9,397.9,438.9z" />
    <path id="sclera-right" d="M624.9,438.9c1.1-0.8,1.3-2.5,0.3-3.5c-4.1-4.6-16.7-16-39.2-13.3c-20.9,2.5-29.2,14.2-31,17.3 c-0.2,0.4-0.1,0.9,0.3,1.2c2.9,1.6,14.6,7.2,34.2,7.2C610.5,447.8,621,441.9,624.9,438.9z" />
    <clipPath id="viewport">
      <rect x="96" width="832" height="608" />
      <use href="#porthole" />
    </clipPath>
    <clipPath id="iris-left">
      <circle class="iris" cx="432.5" cy="430.5" r="17.85" />
    </clipPath>
    <clipPath id="iris-right">
      <circle class="iris" cx="590.2" cy="430.5" r="17.85" />
    </clipPath>
  </defs>
  <g clip-path="url(#viewport)">
    <use href="#porthole" fill="#2E88E6" />
    <g class="body">
      <g class="chest">
        <path fill="#E8C6BE" d="M660.9,822.7c-15.7,68-69.7,99-148.9,99s-133.2-30.9-148.9-99c11.2-0.5,22.4-0.8,33.7-0.8h230.4 C638.5,822,649.7,822.2,660.9,822.7z" />
        <g class="shirt">
          <path fill="#262E33" d="M951.7,1089.5v82.7H72.3v-82.7c0-185.6,117.2-249.8,255.4-264.2c17.1,84,82.1,131.2,184.3,131.2 s167.2-47.2,184.3-131.2C834.5,839.7,951.7,903.9,951.7,1089.5z" />
          <path class="collar" fill="#222A2E" d="M696.3,825.3c-17.1,84-82.1,131.2-184.3,131.2s-167.2-47.2-184.3-131.2c11.7-1.2,23.5-2.1,35.4-2.6 c15.7,68,69.7,99,148.9,99s133.2-30.9,148.9-99C672.8,823.3,684.6,824.1,696.3,825.3z" />
        </g>
      </g>
      <g class="neck">
        <rect x="409" y="742.1" fill="#E8C6BE" width="206" height="129.5" />
        <path class="shadow" fill="#D9AFA5" d="M409,742.1v69.3c31.9,28,67.8,43.3,102.4,43.3c35.1,0,71.4-15.6,103.6-44.3v-68.2H409z" />
      </g>
      <g class="head">
        <g class="ears">
          <path class="ear ear-left" fill="#D9AFA5" d="M357.5,431.2 c 0,-13.2 -7.1,-19.4 -20.3,-19.4 -17.8,0 -20.3,12.9 -20.3,33.1 0,7.8 1.8,33.1 4.1,46.3 6.2,35.2 19.2,66 36.4,66 0.1,-46.1 0.1,-126 0.1,-126 z" />
          <path class="ear ear-right" fill="#D9AFA5" d="M666.3,431.2 c 0,-13.2 7.1,-19.4 20.3,-19.4 17.8,0 20.3,12.9 20.3,33.1 0,7.8 -1.8,33.1 -4.1,46.3 -6.2,35.2 -19.2,66 -36.4,66 -0.1,-46.1 -0.1,-126 -0.1,-126 z" />
        </g>
        <g class="face">
          <path fill="#E8C6BE" d="M686,522.2c-5.6,49.9-15.5,103.6-53.9,152.7c-41.7,53.3-80.5,79.5-120.6,79.5s-78.9-26.2-120.6-79.5 c-38.4-49.1-48.3-102.9-53.9-152.7c-9.7-86.3-7.1-185.6-2.9-215.7c18.9-135.7,106.5-164.7,177.5-164.7s158.5,29.1,177.5,164.7 C693.1,336.6,695.6,435.9,686,522.2z" />
          <path class="shadow" fill="#D9AFA5" d="M688.8,306.5c-18.9-135.7-106.5-164.7-177.5-164.7c-46,0-98.9,12.2-135.6,57.7h-0.5v0.6 c-19.7,24.7-34.7,59.1-41.4,106.5c-4.2,30.1-6.8,129.4,2.9,215.7c5.6,49.9,15.5,103.6,53.9,152.7c8.7,11.1,17.2,21,25.7,29.8 c-19.2-62.6-17.3-126.5-29-146c-15-25.2-34.2-60.1-34.2-127.6c0-57,17.1-118.5,34.3-165.3c0.9-2.3,3-3.9,5.5-4.1 c37.8-2.2,73.7-11.3,106.5-26c1.3-0.6,2.6,0.7,2,2c-2,4.4-4.7,8.4-7.8,12c-1.1,1.2-0.3,3.2,1.3,3.3 c23.9,2.3,46.8-4.3,65.2-17.2c1.3-0.9,2.9,0.5,2.2,1.9c-0.9,1.9-1.9,3.6-3,5.4c-0.8,1.3,0.1,3,1.6,3.1 c28.7,0.9,55.3-9.1,75.8-26.3c1.3-1.1,3.2-0.6,3.8,1c12.9,34.4,19.1,80.3,19.3,115.7c0,4.6,1,9.2,2.9,13.4 c12.4,28.3,17.1,61.3,17.1,84.7c0,14.1-4.4,133.2-41.2,231.2c32.9-46.6,42-96.9,47.2-143.7 C695.6,435.9,693.1,336.6,688.8,306.5z" />
        </g>
        <g class="inner-face">
          <g class="eyebrows">
            <path class="eyebrow eyebrow-left" fill="#664A29" d="M467.1,412.8 c 2,0.6 3.8,-1.2 3.3,-3.2 -1.7,-6.6 -6,-12.8 -17.4,-16 -21,-6 -52.2,-9.5 -74.7,-3.4 -10,2.7 -14.8,8.6 -16,16.8 -0.3,2 1.8,3.6 3.7,2.8 22.6,-9.5 73.1,-5.4 101.1,3 z" />
            <path class="eyebrow eyebrow-right" fill="#664A29" d="M555.6,412.8 c -2,0.6 -3.8,-1.2 -3.3,-3.2 1.7,-6.6 6,-12.8 17.4,-16 21,-6 52.2,-9.5 74.7,-3.4 10,2.7 14.8,8.6 16,16.8 0.3,2 -1.8,3.6 -3.7,2.8 -22.6,-9.5 -73,-5.4 -101.1,3 z" />
          </g>
          <g class="eyes">
            <g class="eye eye-left">
              <path class="shadow" fill="#D9AFA5" d="M387.9,441.2c-1.8-1.3-2.1-3.9-0.6-5.6c5.6-6.4,21.1-20.6,47.6-16.9c22.5,3.1,31,16.9,32.8,20.5 c0.3,0.5,0.1,1.1-0.3,1.4c-3.1,2.2-15.6,10.1-35.3,11C407.1,452.7,393.4,445.3,387.9,441.2z" />
              <g class="sclera">
                <use href="#sclera-left" fill="#FFFFFF" />
                <use href="#sclera-left" fill="#4D664D" clip-path="url(#iris-left)" />
              </g>
              <path class="bag" fill="#D9AFA5" d="M436.5,477.9 c 19.3,-5.5 26.1,-15.9 25,-17 -1,-1 -4.8,3.6 -27.1,10 -22.3,6.4 -27.9,4.5 -28.2,5.9 -0.2,1.4 11,6.6 30.3,1.1 z" />
            </g>
            <g class="eye eye-right">
              <path class="shadow" fill="#D9AFA5" d="M634.9,441.2c1.8-1.3,2.1-3.9,0.6-5.6c-5.6-6.4-21.1-20.6-47.6-16.9c-22.5,3.1-31,16.9-32.8,20.5 c-0.3,0.5-0.1,1.1,0.3,1.4c3.1,2.2,15.6,10.1,35.3,11C615.7,452.7,629.4,445.3,634.9,441.2z" />
              <g class="sclera">
                <use href="#sclera-right" fill="#FFFFFF" />
                <use href="#sclera-right" fill="#4D664D" clip-path="url(#iris-right)" />
              </g>
              <path class="bag" fill="#D9AFA5" d="M586.2,477.9 c -19.3,-5.5 -26.1,-15.9 -25,-17 1,-1 4.8,3.6 27.1,10 22.3,6.4 27.9,4.5 28.2,5.9 0.3,1.4 -10.9,6.6 -30.3,1.1 z" />
            </g>
          </g>
          <path class="nose" fill="#D9AFA5" d="M498.6,496.7c-6.4,36-20.4,51.1-22,49.3c-1.4-1.7,5.5-9.4,12.8-50.9c7.3-41.5,3.5-51.1,5.4-52.2 C496.9,441.7,504.9,460.7,498.6,496.7z M546.3,557.5c-0.9-1.5-6.8,0.9-34.9,0.9c-28.1,0-34-2.4-34.9-0.9 C474.9,560,487,569,511.4,569S547.8,560,546.3,557.5z" />
          <path class="mouth" fill="#D9AFA5" d="M575.8,635.5c0,4.8-21.8,10-64.4,10c-42.6,0-64.4-5.3-64.4-10c0-2.6,4.5-2,11.6-2c9.5,0,25.8,1.1,52.8,1.1 c27,0,43.3-1.1,52.8-1.1C571.3,633.6,575.8,632.9,575.8,635.5z" />
        </g>
        <g class="hair">
          <path fill="#664A29" d="M674.9,204.4 c 21,46 27.1,115.1 19.4,207 -0.6,7 -1.5,21.8 -2.5,37.8 v 0 c -1.3,21.1 -2.7,44.5 -3.4,55.2 -3.9,56.8 1.5,129.3 -10.8,178.5 -16,63.6 -88.3,141.7 -166.2,141.7 -77.9,0 -150.2,-78.1 -166.2,-141.7 -12.4,-49.2 -6.9,-121.7 -10.8,-178.5 -0.7,-10.8 -2.1,-34.1 -3.4,-55.2 v 0 c -1,-16 -1.9,-30.8 -2.5,-37.8 -7.1,-85.8 -2.3,-151.7 15.4,-197.5 0.6,-1.4 -0.8,-2.9 -2.2,-2.4 -4.9,1.5 -9.5,3.7 -13.8,6.3 -1.3,0.8 -2.8,-0.4 -2.5,-1.8 2.5,-11.3 8.1,-21.4 15.7,-29.6 0.8,-0.9 0.1,-2.3 -1.1,-2.1 -3.3,0.6 -6.6,1.4 -9.7,2.5 -1.4,0.5 -2.7,-0.9 -2.1,-2.3 4.9,-10.4 12.4,-19 21.5,-25.3 1,-0.7 0.5,-2.2 -0.7,-2.3 -3.6,-0.2 -7.1,-0.1 -10.6,0.3 -1.5,0.2 -2.4,-1.5 -1.5,-2.7 7,-9.1 16.2,-15.9 26.4,-20 1.1,-0.5 1.1,-2.1 -0.1,-2.4 -3.4,-1 -6.9,-1.6 -10.4,-2 -1.5,-0.2 -2.1,-2 -0.9,-3 8.8,-7.3 19.2,-12 30.2,-13.8 1.2,-0.2 1.5,-1.8 0.4,-2.4 -3.1,-1.7 -6.4,-3.1 -9.8,-4.2 -1.4,-0.5 -1.5,-2.4 -0.2,-3.1 12.8,-6.6 27.2,-8.5 40.8,-6 2.5,0.5 5.1,0.2 7.5,-0.7 16.1,-6.6 36,-10.7 60.2,-11.4 1.1,0 1.8,-1.4 1,-2.2 -1.5,-1.9 -3.1,-3.6 -4.8,-5.3 -1.1,-1.1 -0.4,-2.9 1.1,-2.9 12.6,-0.3 24.8,3.2 35.1,9.7 2,1.3 4.3,2.2 6.7,2.4 50.1,5.9 85,26.8 107.8,49.4 1,1 2.7,0.2 2.6,-1.3 -0.4,-3.4 -1,-6.8 -1.9,-10.1 -0.4,-1.4 1.1,-2.6 2.5,-1.9 15.9,8.7 27.1,23.7 31.2,40.8 0.5,2.2 1.7,4.3 3.3,5.9 9.1,8.9 15.5,20.6 18,33.5 0.3,1.5 -1.3,2.6 -2.6,1.8 -1.3,-0.9 -2.7,-1.7 -4.1,-2.5 -1.2,-0.9 -2.5,0.4 -2,1.6 z m -76.7,427 c -11.6,-13.3 -45.4,-20.5 -86.8,-20.5 -41.4,0 -75.2,7.1 -86.8,20.5 -4.3,4.9 -5.8,15 -4.6,28.1 0.1,1.6 1,3.1 2.4,4.1 l 1.2,0.8 c 34.2,23.1 46.6,45.8 72.2,52.3 1.2,0.3 2.3,-0.9 1.9,-2.1 -7.3,-20.7 -20.4,-38.6 -23.6,-48.5 -0.6,-1.7 0.9,-3.4 2.7,-3.1 10.7,1.9 22.4,2.9 34.5,2.9 12.2,0 23.8,-1 34.5,-2.9 1.8,-0.3 3.3,1.4 2.7,3.1 -3.3,9.9 -16.3,27.8 -23.6,48.5 -0.4,1.2 0.7,2.4 1.9,2.1 25.6,-6.5 38.1,-29.2 72.2,-52.3 l 1.2,-0.8 c 1.4,-0.9 2.2,-2.4 2.4,-4.1 1.4,-13.1 -0.1,-23.2 -4.4,-28.1 z m 89.7,-182.2 c 0.9,-12.9 0.4,-25.8 -1.5,-38.6 -2.6,-17.8 -7.9,-42.7 -18.6,-64.6 -1.5,-3.1 -2.4,-6.5 -2.4,-9.9 -0.8,-37.3 -8.6,-86.6 -23.7,-121.7 -0.5,-1.1 -1.9,-1.5 -2.9,-0.7 -18.2,13.7 -40.7,22.1 -65.1,22.7 -1.3,0 -2.1,-1.2 -1.7,-2.4 2,-5.1 3.1,-10.6 3.4,-16.1 0.1,-1.1 -1.2,-1.6 -2,-0.9 -16.7,16.3 -39.3,26.7 -64.3,27.7 -1.4,0.1 -2.4,-1.5 -1.6,-2.7 3.5,-5.7 6,-12.2 7,-19.1 0.2,-1 -0.9,-1.8 -1.8,-1.5 -43,15.7 -89.4,24.4 -137.7,25 -2.8,0 -5.3,1.9 -6,4.7 -7.2,28.4 -11,59.6 -11.6,85.1 -0.1,3.4 -0.9,6.8 -2.4,9.9 -10.7,21.9 -16,46.9 -18.6,64.6 -1.9,12.8 -2.3,25.7 -1.5,38.6 v 0 c 1.7,24.8 5.7,76.4 12.6,125 8.1,57 19.1,56 56,77.6 1.1,0.7 2.5,-0.3 2.3,-1.6 -1.7,-10.6 -1.3,-19.5 1.4,-25.9 7.3,-17.1 31.9,-31.1 57.9,-37.3 24.1,-5.8 37.9,-2.5 46.2,-2.5 8.3,0 22.1,-3.3 46.2,2.5 26,6.2 50.6,20.2 57.9,37.3 2.7,6.4 3.1,15.3 1.4,25.9 -0.2,1.3 1.2,2.2 2.3,1.6 37,-21.6 48,-20.6 56,-77.6 7,-48.7 11.1,-100.3 12.8,-125.1 z" />
          <path class="shadow" fill="#5C4225" d="M416.4,704.7c-5.5-17.8-9.2-35.7-12.1-52.7c-0.3,0-0.6,0-0.8-0.2c-37-21.6-48-20.6-56-77.6 c-6.9-48.6-10.9-100.2-12.6-125h0c-0.8-11.9-0.5-23.8,1.1-35.6c0,0,0,0,0,0c-4.3-19.3-8-39.7-10.6-60.7 c0.3,18.4,1.3,37.9,3,58.5c0.6,7,1.5,21.8,2.5,37.8h0c1.3,21.1,2.7,44.5,3.4,55.2c3.9,56.8-1.5,129.3,10.8,178.5 c16,63.6,88.3,141.7,166.2,141.7c30.2,0,59.6-11.8,85.2-29.9l0,0C489.5,835,433,758.8,416.4,704.7z" />
        </g>
      </g>
    </g>
  </g>
</svg>
